<svg width="256" height="256" viewBox="0 0 256 256" fill="none" xmlns="http://www.w3.org/2000/svg">
  <rect width="256" height="256" rx="56" fill="#0B1220"/>
  <rect x="34" y="34" width="188" height="188" rx="40" fill="#F6EBD8"/>
  <path d="M66 96C66 78.3269 80.3269 64 98 64H158C175.673 64 190 78.3269 190 96V160C190 177.673 175.673 192 158 192H98C80.3269 192 66 177.673 66 160V96Z" fill="#111827"/>
  <path d="M92 108C92 99.1634 99.1634 92 108 92H148C156.837 92 164 99.1634 164 108V148C164 156.837 156.837 164 148 164H108C99.1634 164 92 156.837 92 148V108Z" fill="#F97316"/>
  <circle cx="128" cy="128" r="22" fill="#F6EBD8"/>
  <path d="M128 84L132.715 97.5223H147.033L135.159 105.955L139.874 119.478L128 111.045L116.126 119.478L120.841 105.955L108.967 97.5223H123.285L128 84Z" fill="#F6EBD8"/>
</svg>
